<svg xmlns="http://www.w3.org/2000/svg" width="400" height="300" viewBox="0 0 400 300"><rect width="100%" height="100%" fill="#EEEEEE"/><path fill="#666666" d="M85.31 153.605h8.36v-8.98q0-1.27.17-2.81zm12.45 0h3.46v2.72q0 .38-.25.66-.25.27-.7.27h-2.51v6.71h-4.09v-6.71H82.08q-.47 0-.83-.29-.36-.3-.46-.73l-.49-2.38 13.01-17.38h4.45zm25.52-3.38q0 3.59-.77 6.24-.77 2.66-2.13 4.38-1.36 1.73-3.21 2.58-1.86.84-4 .84-2.15 0-3.98-.84-1.84-.85-3.19-2.58-1.34-1.72-2.1-4.38-.76-2.65-.76-6.24 0-3.61.76-6.25t2.1-4.37q1.35-1.73 3.19-2.57 1.83-.85 3.98-.85 2.14 0 4 .85 1.85.84 3.21 2.57t2.13 4.37.77 6.25m-4.85 0q0-2.98-.44-4.94-.43-1.95-1.17-3.11-.73-1.16-1.68-1.63-.95-.46-1.97-.46-1.01 0-1.95.46-.94.47-1.66 1.63t-1.15 3.11q-.43 1.96-.43 4.94 0 2.99.43 4.94.43 1.96 1.15 3.12t1.66 1.62q.94.47 1.95.47 1.02 0 1.97-.47.95-.46 1.68-1.62.74-1.16 1.17-3.12.44-1.95.44-4.94m10.96 3.38h8.36v-8.98q0-1.27.17-2.81zm12.45 0h3.46v2.72q0 .38-.25.66-.25.27-.7.27h-2.51v6.71h-4.09v-6.71h-11.59q-.47 0-.83-.29-.36-.3-.46-.73l-.49-2.38 13.01-17.38h4.45zm20.04-8.28.33 1.54q.59-.59 1.24-1.09.66-.51 1.39-.86t1.57-.55q.83-.2 1.82-.2 1.6 0 2.83.54 1.24.55 2.06 1.52.83.98 1.26 2.34.42 1.36.42 2.99v12.41h-4.69v-12.41q0-1.78-.82-2.76-.81-.98-2.49-.98-1.21 0-2.28.55-1.06.55-2.01 1.5v14.1h-4.69v-19.49h2.87q.91 0 1.19.85m26-1.16q2.16 0 3.94.71 1.77.7 3.04 1.99 1.26 1.29 1.95 3.15.68 1.87.68 4.16 0 2.32-.68 4.19-.69 1.86-1.95 3.17-1.27 1.31-3.04 2.01-1.78.7-3.94.7-2.19 0-3.98-.7-1.78-.7-3.05-2.01-1.26-1.31-1.95-3.17-.7-1.87-.7-4.19 0-2.29.7-4.16.69-1.86 1.95-3.15 1.27-1.29 3.05-1.99 1.79-.71 3.98-.71m0 16.48q2.43 0 3.6-1.64 1.16-1.63 1.16-4.79 0-3.15-1.16-4.8-1.17-1.66-3.6-1.66-2.47 0-3.66 1.67-1.19 1.66-1.19 4.79 0 3.14 1.19 4.78 1.19 1.65 3.66 1.65m19.7 3.62q-2.55 0-3.91-1.43-1.35-1.43-1.35-3.96v-10.89h-2q-.38 0-.65-.25-.26-.24-.26-.74v-1.86l3.13-.51.99-5.32q.1-.38.36-.59.27-.21.69-.21h2.43v6.14h5.2v3.34h-5.2v10.56q0 .92.44 1.43.45.51 1.23.51.44 0 .73-.1.3-.11.51-.22.22-.11.39-.22.18-.1.35-.1.21 0 .34.1.13.11.28.31l1.41 2.28q-1.03.86-2.36 1.3-1.33.43-2.75.43m22.93-.3h-4.69v-15.96l-1.69-.27q-.55-.11-.89-.39-.33-.27-.33-.78v-1.92h2.91v-1.45q0-1.67.5-3 .51-1.33 1.45-2.26t2.29-1.42q1.34-.5 3.04-.5 1.34 0 2.5.36l-.09 2.36q-.02.26-.15.43-.14.16-.36.24-.21.09-.5.12-.28.03-.61.03-.83 0-1.49.18-.65.18-1.11.62-.46.45-.69 1.18-.24.73-.24 1.82v1.29h5.07v3.34h-4.92zm16.19-19.8q2.17 0 3.94.71 1.78.7 3.04 1.99 1.27 1.29 1.95 3.15.68 1.87.68 4.16 0 2.32-.68 4.19-.68 1.86-1.95 3.17-1.26 1.31-3.04 2.01-1.77.7-3.94.7-2.19 0-3.97-.7-1.79-.7-3.05-2.01t-1.96-3.17q-.69-1.87-.69-4.19 0-2.29.69-4.16.7-1.86 1.96-3.15t3.05-1.99q1.78-.71 3.97-.71m0 16.48q2.43 0 3.6-1.64 1.17-1.63 1.17-4.79 0-3.15-1.17-4.8-1.17-1.66-3.6-1.66-2.47 0-3.66 1.67-1.19 1.66-1.19 4.79 0 3.14 1.19 4.78 1.19 1.65 3.66 1.65m25.31-16.17h4.69v19.49h-2.87q-.93 0-1.18-.85l-.32-1.56q-1.2 1.21-2.64 1.96-1.45.75-3.4.75-1.6 0-2.82-.54-1.23-.54-2.06-1.53-.84-.98-1.27-2.34t-.43-3v-12.38h4.7v12.38q0 1.79.82 2.77.83.98 2.48.98 1.22 0 2.28-.54 1.07-.55 2.02-1.5zm13.39.85.32 1.54q.59-.59 1.25-1.09.66-.51 1.39-.86t1.56-.55q.84-.2 1.83-.2 1.59 0 2.83.54 1.23.55 2.06 1.52.83.98 1.25 2.34.43 1.36.43 2.99v12.41h-4.69v-12.41q0-1.78-.82-2.76-.81-.98-2.49-.98-1.21 0-2.28.55-1.06.55-2.01 1.5v14.1h-4.69v-19.49h2.87q.91 0 1.19.85m29.6 12.86v-8.74q-.79-.96-1.73-1.36t-2.03-.4q-1.06 0-1.92.4-.85.4-1.46 1.2-.61.81-.93 2.05-.32 1.25-.32 2.94 0 1.71.27 2.9.28 1.19.79 1.94t1.25 1.08q.75.33 1.66.33 1.46 0 2.49-.61 1.02-.61 1.93-1.73m0-22.45h4.7v28.23h-2.87q-.93 0-1.18-.85l-.4-1.89q-1.18 1.35-2.71 2.19-1.53.83-3.56.83-1.59 0-2.92-.66t-2.29-1.93q-.96-1.26-1.49-3.12-.52-1.87-.52-4.26 0-2.17.59-4.03t1.69-3.23 2.64-2.14 3.46-.77q1.63 0 2.79.52 1.16.51 2.07 1.39z"/></svg>